<svg width="36" height="46" viewBox="0 0 36 46" fill="none" xmlns="http://www.w3.org/2000/svg">
<path d="M11.8128 19.88L3.89581 7.7H7.75281L13.9298 17.415H12.1318L18.3088 7.7H22.1078L14.1328 19.88H11.8128ZM11.3488 28V17.792H14.6838V28H11.3488Z" fill="#FFD233"/>
<path d="M18.475 39V36.1H24.304C25.3286 36.1 26.1213 35.781 26.682 35.143C27.2426 34.505 27.523 33.7703 27.523 32.939C27.523 32.3783 27.3973 31.8563 27.146 31.373C26.8946 30.8897 26.5273 30.503 26.044 30.213C25.5606 29.923 24.9806 29.778 24.304 29.778H18.475V26.878H23.811C24.681 26.878 25.377 26.6557 25.899 26.211C26.421 25.7663 26.682 25.109 26.682 24.239C26.682 23.369 26.421 22.7117 25.899 22.267C25.377 21.8223 24.681 21.6 23.811 21.6H18.475V18.7H23.898C25.2706 18.7 26.4113 18.9513 27.32 19.454C28.2286 19.9567 28.9053 20.6043 29.35 21.397C29.7946 22.1897 30.017 23.0403 30.017 23.949C30.017 25.0123 29.7173 25.95 29.118 26.762C28.538 27.574 27.6776 28.2313 26.537 28.734L26.798 27.69C28.074 28.212 29.0696 28.9467 29.785 29.894C30.5003 30.8413 30.858 31.953 30.858 33.229C30.858 34.273 30.597 35.23 30.075 36.1C29.5723 36.97 28.8183 37.6757 27.813 38.217C26.827 38.739 25.609 39 24.159 39H18.475ZM16.184 39V18.7H19.519V39H16.184Z" fill="#FFD233"/>
</svg>
